<svg width="526.7962036132812px" height="122px" xmlns="http://www.w3.org/2000/svg" viewBox="-13.398101806640625 14 526.7962036132812 122" style="background: rgba(0, 0, 0, 0);" preserveAspectRatio="xMidYMid"><defs><filter id="editing-vr"><feFlood flood-color="#fc0fc0" flood-opacity="0.7" result="c1"></feFlood><feFlood flood-color="#4166f5" flood-opacity="0.7" result="c3"></feFlood><feComposite operator="in" in="c1" in2="SourceAlpha" result="text-c1"></feComposite><feComposite operator="in" in="c3" in2="SourceAlpha" result="text-c3"></feComposite><feOffset in="text-c1" dx="5" dy="-1" result="text1"></feOffset><feOffset in="text-c3" dx="-5" dy="1" result="text3"></feOffset><feBlend in="SourceGraphic" in2="text1" mode="multiply" result="text4"></feBlend><feBlend in="text4" in2="text3" mode="multiply"></feBlend></filter></defs><g filter="url(#editing-vr)"><g transform="translate(64.39669108390808, 98.68000030517578)"><path d="M2.11-6.40L2.11-6.40L2.11-6.40Q2.11-8.13 3.01-12.48L3.01-12.48L6.40-29.76L2.62-29.76L2.88-31.68L2.88-31.68Q10.56-33.98 17.98-39.62L17.98-39.62L21.06-39.62L19.52-32.64L24.51-32.64L23.94-29.76L19.01-29.76L15.74-12.48L15.74-12.48Q14.91-8.51 14.91-7.17L14.91-7.17L14.91-7.17Q14.91-4.10 17.60-3.46L17.60-3.46L17.60-3.46Q16.96-1.28 14.66 0L14.66 0L14.66 0Q12.35 1.28 9.09 1.28L9.09 1.28L9.09 1.28Q5.82 1.28 3.97-0.77L3.97-0.77L3.97-0.77Q2.11-2.82 2.11-6.40ZM56.38-7.10L56.38-7.10L56.38-7.10Q56.38-4.29 59.26-3.46L59.26-3.46L59.26-3.46Q58.56-1.09 55.81 0.19L55.81 0.19L55.81 0.19Q53.50 1.28 50.98 1.28L50.98 1.28L50.98 1.28Q48.45 1.28 47.14 0.61L47.14 0.61L47.14 0.61Q45.82-0.06 45.12-1.15L45.12-1.15L45.12-1.15Q43.97-2.82 43.97-5.95L43.97-5.95L43.97-5.95Q43.97-7.81 44.99-12.93L44.99-12.93L45.89-17.79L45.89-17.79Q46.98-23.36 46.98-25.41L46.98-25.41L46.98-25.41Q46.98-28.99 44.99-28.99L44.99-28.99L44.99-28.99Q42.50-28.99 40.90-25.34L40.90-25.34L40.90-25.34Q40.26-23.94 39.81-21.82L39.81-21.82L35.46 0L22.59 1.28L31.62-44.80L44.48-46.08L43.97-43.52L43.97-43.52Q42.18-33.66 40.64-30.34L40.64-30.34L40.64-30.34Q44.22-33.92 50.82-33.92L50.82-33.92L50.82-33.92Q57.79-33.92 59.07-29.31L59.07-29.31L59.07-29.31Q59.52-27.84 59.52-26.56L59.52-26.56L59.52-26.56Q59.52-25.28 59.42-24.29L59.42-24.29L59.42-24.29Q59.33-23.30 59.01-21.50L59.01-21.50L58.18-16.90L56.70-9.66L56.70-9.66Q56.38-8.19 56.38-7.10ZM90.37-10.82L90.37-10.82L90.37-10.82Q91.97-9.73 91.97-7.33L91.97-7.33L91.97-7.33Q91.97-4.93 90.75-3.39L90.75-3.39L90.75-3.39Q89.54-1.86 87.55-0.83L87.55-0.83L87.55-0.83Q83.46 1.28 79.04 1.28L79.04 1.28L79.04 1.28Q74.62 1.28 72.03 0.32L72.03 0.32L72.03 0.32Q69.44-0.64 67.71-2.43L67.71-2.43L67.71-2.43Q64.32-5.82 64.32-12.03L64.32-12.03L64.32-12.03Q64.32-21.70 69.57-27.58L69.57-27.58L69.57-27.58Q75.20-33.92 84.99-33.92L84.99-33.92L84.99-33.92Q91.07-33.92 94.08-31.36L94.08-31.36L94.08-31.36Q96.32-29.44 96.32-26.30L96.32-26.30L96.32-26.30Q96.32-15.04 76.86-15.04L76.86-15.04L76.86-15.04Q76.61-13.38 76.61-11.97L76.61-11.97L76.61-11.97Q76.61-9.02 77.92-7.90L77.92-7.90L77.92-7.90Q79.23-6.78 81.66-6.78L81.66-6.78L81.66-6.78Q84.10-6.78 86.69-7.90L86.69-7.90L86.69-7.90Q89.28-9.02 90.37-10.82ZM77.31-17.79L77.31-17.79L77.31-17.79Q81.86-17.79 84.48-20.61L84.48-20.61L84.48-20.61Q87.10-23.30 87.10-27.58L87.10-27.58L87.10-27.58Q87.10-29.06 86.56-29.86L86.56-29.86L86.56-29.86Q86.02-30.66 84.93-30.66L84.93-30.66L84.93-30.66Q83.84-30.66 82.91-30.24L82.91-30.24L82.91-30.24Q81.98-29.82 81.02-28.42L81.02-28.42L81.02-28.42Q78.66-25.22 77.31-17.79ZM111.04-0.32L111.04-0.32L119.10-42.24L119.10-42.24Q126.66-42.88 131.52-42.88L131.52-42.88L131.52-42.88Q136.38-42.88 139.52-42.46L139.52-42.46L139.52-42.46Q142.66-42.05 144.77-40.96L144.77-40.96L144.77-40.96Q148.99-38.91 148.99-33.28L148.99-33.28L148.99-33.28Q148.99-30.02 146.18-27.26L146.18-27.26L146.18-27.26Q143.55-24.77 140.67-24.19L140.67-24.19L140.67-24.19Q143.74-23.68 145.92-21.38L145.92-21.38L145.92-21.38Q148.22-18.94 148.22-15.17L148.22-15.17L148.22-15.17Q148.22-7.87 142.78-3.62L142.78-3.62L142.78-3.62Q137.34 0.64 126.66 0.64L126.66 0.64L126.66 0.64Q119.30 0.64 111.04-0.32ZM128.45-20.61L125.25-4.03L125.25-4.03Q125.82-3.97 125.95-3.97L125.95-3.97L126.53-3.97L126.53-3.97Q131.78-3.97 134.02-7.42L134.02-7.42L134.02-7.42Q135.68-10.11 135.68-15.04L135.68-15.04L135.68-15.04Q135.68-17.66 133.98-19.07L133.98-19.07L133.98-19.07Q132.29-20.48 128.45-20.61L128.45-20.61ZM138.18-33.22L138.18-33.22L138.18-33.22Q138.18-38.53 133.06-38.53L133.06-38.53L132.48-38.53L132.48-38.53Q132.22-38.53 131.84-38.46L131.84-38.46L129.28-24.96L129.92-24.96L129.92-24.96Q138.18-25.15 138.18-33.22ZM172.99-2.69L172.99-2.69L172.99-2.69Q169.92 1.28 162.30 1.28L162.30 1.28L162.30 1.28Q158.34 1.28 155.46-1.12L155.46-1.12L155.46-1.12Q152.58-3.52 152.58-6.98L152.58-6.98L152.58-6.98Q152.58-8.90 152.77-9.86L152.77-9.86L157.06-32.64L170.05-33.92L165.38-9.22L165.38-9.22Q165.12-7.81 165.12-6.98L165.12-6.98L165.12-6.98Q165.12-3.26 167.36-3.26L167.36-3.26L167.36-3.26Q169.86-3.26 171.65-6.66L171.65-6.66L171.65-6.66Q172.22-7.74 172.48-9.15L172.48-9.15L177.02-32.64L189.63-33.92L184.90-8.96L184.90-8.96Q184.70-8 184.70-6.98L184.70-6.98L184.70-6.98Q184.70-5.95 185.28-4.83L185.28-4.83L185.28-4.83Q185.86-3.71 187.71-3.46L187.71-3.46L187.71-3.46Q187.33-1.92 185.98-0.90L185.98-0.90L185.98-0.90Q183.17 1.28 180.13 1.28L180.13 1.28L180.13 1.28Q177.09 1.28 175.30 0.19L175.30 0.19L175.30 0.19Q173.50-0.90 172.99-2.69ZM220.16 1.28L220.16 1.28L220.16 1.28Q212.42 1.28 212.42-4.74L212.42-4.74L212.42-4.74Q212.48-6.40 212.99-9.22L212.99-9.22L214.14-15.10L214.14-15.10Q215.87-23.42 215.87-25.28L215.87-25.28L215.87-25.28Q215.87-28.99 213.70-28.99L213.70-28.99L213.70-28.99Q210.05-28.99 208.13-19.46L208.13-19.46L204.35 0L191.49 1.28L198.14-32.70L208.64-33.92L207.62-27.65L207.62-27.65Q210.62-33.92 219.84-33.92L219.84-33.92L219.84-33.92Q224.32-33.92 226.21-32.03L226.21-32.03L226.21-32.03Q228.10-30.14 228.10-25.92L228.10-25.92L228.10-25.92Q228.10-21.95 226.05-12.67L226.05-12.67L226.05-12.67Q225.09-8.51 225.09-6.94L225.09-6.94L225.09-6.94Q225.09-5.38 225.95-4.48L225.95-4.48L225.95-4.48Q226.82-3.58 228.10-3.46L228.10-3.46L228.10-3.46Q227.46-1.28 225.25 0L225.25 0L225.25 0Q223.04 1.28 220.16 1.28ZM279.81-13.25L279.81-13.25L279.81-13.25Q281.47-12.03 281.47-9.44L281.47-9.44L281.47-9.44Q281.47-6.85 280.35-5.02L280.35-5.02L280.35-5.02Q279.23-3.20 277.06-1.79L277.06-1.79L277.06-1.79Q272.38 1.22 264.22 1.22L264.22 1.22L264.22 1.22Q256.06 1.22 251.62-3.04L251.62-3.04L251.62-3.04Q247.17-7.30 247.17-14.85L247.17-14.85L247.17-14.85Q247.17-25.54 252.74-33.66L252.74-33.66L252.74-33.66Q256.96-39.68 264.51-42.24L264.51-42.24L264.51-42.24Q268.42-43.52 272.26-43.52L272.26-43.52L272.26-43.52Q276.10-43.52 278.46-43.01L278.46-43.01L278.46-43.01Q280.83-42.50 282.62-41.47L282.62-41.47L282.62-41.47Q286.53-39.23 286.53-35.65L286.53-35.65L286.53-35.65Q286.53-32.38 283.46-29.95L283.46-29.95L283.46-29.95Q280.64-27.78 278.34-27.78L278.34-27.78L278.34-27.78Q276.03-27.78 275.07-28.10L275.07-28.10L275.07-28.10Q275.33-30.40 275.33-31.90L275.33-31.90L275.33-31.90Q275.33-33.41 275.26-34.50L275.26-34.50L275.26-34.50Q275.20-35.58 274.88-36.61L274.88-36.61L274.88-36.61Q274.24-38.98 272.29-38.98L272.29-38.98L272.29-38.98Q270.34-38.98 268.38-37.15L268.38-37.15L268.38-37.15Q266.43-35.33 264.77-32.26L264.77-32.26L264.77-32.26Q260.99-25.28 260.99-17.02L260.99-17.02L260.99-17.02Q260.99-13.06 263.23-10.78L263.23-10.78L263.23-10.78Q265.47-8.51 270.27-8.51L270.27-8.51L270.27-8.51Q273.86-8.51 277.25-10.88L277.25-10.88L277.25-10.88Q278.72-11.90 279.81-13.25ZM307.33-2.69L307.33-2.69L307.33-2.69Q304.26 1.28 296.64 1.28L296.64 1.28L296.64 1.28Q292.67 1.28 289.79-1.12L289.79-1.12L289.79-1.12Q286.91-3.52 286.91-6.98L286.91-6.98L286.91-6.98Q286.91-8.90 287.10-9.86L287.10-9.86L291.39-32.64L304.38-33.92L299.71-9.22L299.71-9.22Q299.46-7.81 299.46-6.98L299.46-6.98L299.46-6.98Q299.46-3.26 301.70-3.26L301.70-3.26L301.70-3.26Q304.19-3.26 305.98-6.66L305.98-6.66L305.98-6.66Q306.56-7.74 306.82-9.15L306.82-9.15L311.36-32.64L323.97-33.92L319.23-8.96L319.23-8.96Q319.04-8 319.04-6.98L319.04-6.98L319.04-6.98Q319.04-5.95 319.62-4.83L319.62-4.83L319.62-4.83Q320.19-3.71 322.05-3.46L322.05-3.46L322.05-3.46Q321.66-1.92 320.32-0.90L320.32-0.90L320.32-0.90Q317.50 1.28 314.46 1.28L314.46 1.28L314.46 1.28Q311.42 1.28 309.63 0.19L309.63 0.19L309.63 0.19Q307.84-0.90 307.33-2.69ZM342.72-3.52L342.72-3.52L342.72-3.52Q340.74 1.28 334.40 1.28L334.40 1.28L334.40 1.28Q331.20 1.28 329.15-0.96L329.15-0.96L329.15-0.96Q327.49-2.82 327.49-4.93L327.49-4.93L327.49-4.93Q327.49-9.73 329.73-20.22L329.73-20.22L334.40-44.80L347.39-46.08L341.18-13.70L341.18-13.70Q340.10-8.96 340.10-7.30L340.10-7.30L340.10-7.30Q340.10-3.65 342.72-3.52ZM349.18-6.40L349.18-6.40L349.18-6.40Q349.18-8.13 350.08-12.48L350.08-12.48L353.47-29.76L349.70-29.76L349.95-31.68L349.95-31.68Q357.63-33.98 365.06-39.62L365.06-39.62L368.13-39.62L366.59-32.64L371.58-32.64L371.01-29.76L366.08-29.76L362.82-12.48L362.82-12.48Q361.98-8.51 361.98-7.17L361.98-7.17L361.98-7.17Q361.98-4.10 364.67-3.46L364.67-3.46L364.67-3.46Q364.03-1.28 361.73 0L361.73 0L361.73 0Q359.42 1.28 356.16 1.28L356.16 1.28L356.16 1.28Q352.90 1.28 351.04-0.77L351.04-0.77L351.04-0.77Q349.18-2.82 349.18-6.40Z" fill="#444"></path></g></g><style>text {
  font-size: 64px;
  font-family: Arial Black;
  dominant-baseline: central;
  text-anchor: middle;
}</style></svg>